<svg width="103" height="45" viewBox="0 0 103 45" fill="none" xmlns="http://www.w3.org/2000/svg">
<path d="M22.3776 29.8762C20.97 29.8759 19.5939 30.2931 18.4234 31.0749C17.2529 31.8568 16.3405 32.9682 15.8017 34.2686C15.2629 35.569 15.1219 37 15.3964 38.3806C15.671 39.7612 16.3488 41.0293 17.3441 42.0247C18.3394 43.02 19.6076 43.6978 20.9882 43.9723C22.3688 44.2469 23.7997 44.1058 25.1001 43.567C26.4006 43.0282 27.512 42.1159 28.2938 40.9454C29.0757 39.7749 29.4928 38.3988 29.4925 36.9912C29.4914 35.1045 28.7414 33.2955 27.4074 31.9614C26.0733 30.6273 24.2642 29.8774 22.3776 29.8762Z" fill="white"/>
<path d="M22.3771 32.639C21.5159 32.639 20.6742 32.8943 19.9582 33.3728C19.2422 33.8512 18.6842 34.5313 18.3547 35.3269C18.0252 36.1225 17.9391 36.9979 18.1072 37.8425C18.2753 38.687 18.6901 39.4628 19.2991 40.0716C19.9081 40.6804 20.684 41.0949 21.5286 41.2627C22.3732 41.4306 23.2486 41.3441 24.0441 41.0144C24.8396 40.6847 25.5195 40.1264 25.9977 39.4103C26.4759 38.6942 26.731 37.8523 26.7307 36.9912C26.7258 35.8382 26.2654 34.7338 25.45 33.9186C24.6346 33.1035 23.5301 32.6435 22.3771 32.639Z" fill="#CE3252"/>
<path d="M2.54402 1.30992C2.96238 1.30708 3.37214 1.42872 3.72118 1.65937C4.07023 1.89003 4.34279 2.21928 4.5042 2.60526C4.66562 2.99124 4.7086 3.41651 4.62768 3.82698C4.54676 4.23745 4.34559 4.61458 4.04976 4.91041C3.75392 5.20625 3.37679 5.40742 2.96632 5.48834C2.55585 5.56926 2.13058 5.52628 1.74461 5.36486C1.35863 5.20344 1.02938 4.93088 0.798718 4.58184C0.568061 4.23279 0.446421 3.82304 0.449268 3.40467C0.451165 2.8497 0.67247 2.31799 1.0649 1.92556C1.45733 1.53313 1.98904 1.31182 2.54402 1.30992ZM0.777517 23.1529V8.1974H4.30908V23.1529H0.777517Z" fill="white"/>
<path d="M8.73733 18.4854C9.90348 19.5018 11.5793 20.2505 13.2551 20.2505C14.7524 20.2505 15.9185 19.6213 15.9185 18.8108C15.9185 17.5539 14.0339 17.1652 12.9268 16.8657C10.4722 16.1776 7.15079 15.4592 7.15079 12.2587C7.15079 9.71481 9.63425 7.88928 13.0161 7.88928C15.3498 7.88928 17.505 8.7531 18.9706 10.0733L17.0256 12.4704C15.9487 11.5432 14.4529 11.094 13.0161 11.094C11.4598 11.094 10.7126 11.6325 10.7126 12.2904C10.7126 13.0995 12.2084 13.4278 13.8238 13.8165C16.7866 14.5047 19.4501 15.5528 19.4501 18.7849C19.4501 21.4771 16.7866 23.4523 13.1658 23.4523C10.7469 23.4656 8.4139 22.5558 6.64258 20.9084L8.73733 18.4854Z" fill="white"/>
<path d="M25.3753 23.1529H21.8438V0.710999H25.3753V23.1529Z" fill="white"/>
<path d="M35.3708 7.89215C37.2554 7.89215 38.9916 8.87978 39.9778 10.0517V8.19737H43.5094V23.1529H39.9778V21.2381C39.4159 21.9185 38.7129 22.4689 37.9175 22.8512C37.1221 23.2334 36.2532 23.4386 35.3708 23.4523C31.0921 23.4523 27.9492 19.951 27.9492 15.678C27.9492 11.405 31.0993 7.89215 35.3708 7.89215ZM31.4837 15.6665C31.4837 16.5068 31.7328 17.3282 32.1997 18.0268C32.6665 18.7255 33.33 19.27 34.1063 19.5916C34.8827 19.9132 35.7369 19.9973 36.561 19.8334C37.3852 19.6694 38.1422 19.2648 38.7363 18.6706C39.3305 18.0765 39.7351 17.3195 39.8991 16.4953C40.063 15.6712 39.9789 14.817 39.6573 14.0406C39.3357 13.2643 38.7912 12.6008 38.0925 12.134C37.3939 11.6671 36.5725 11.418 35.7322 11.418C34.6052 11.4214 33.5254 11.8708 32.7287 12.668C31.9321 13.4651 31.4834 14.5452 31.4808 15.6722L31.4837 15.6665Z" fill="white"/>
<path d="M46.9785 8.19737H50.5101V9.80694C51.0898 9.20135 51.7861 8.71947 52.5571 8.39038C53.3281 8.06129 54.1578 7.89181 54.9962 7.89215C57.2709 7.89215 59.0662 8.94025 60.0235 10.7053C61.3697 8.99927 62.9562 7.89215 65.3504 7.89215C68.8215 7.89215 71.2157 10.3396 71.2157 14.1462V23.1529H67.6856V14.8948C67.6856 12.3811 66.3697 11.2207 64.4837 11.2207C62.448 11.2207 60.8629 12.7166 60.8629 15.0215V23.1601H57.3313V14.8948C57.3313 12.3811 56.0155 11.2207 54.1323 11.2207C52.0981 11.2207 50.513 12.7166 50.513 15.0805V23.1601H46.9785V8.19737Z" fill="white"/>
<path d="M76.4483 1.30992C76.8667 1.30708 77.2764 1.42872 77.6255 1.65937C77.9745 1.89003 78.2471 2.21928 78.4085 2.60526C78.5699 2.99124 78.6129 3.41651 78.532 3.82698C78.4511 4.23745 78.2499 4.61458 77.9541 4.91041C77.6582 5.20625 77.2811 5.40742 76.8706 5.48834C76.4601 5.56926 76.0349 5.52628 75.6489 5.36486C75.2629 5.20344 74.9337 4.93088 74.703 4.58184C74.4724 4.23279 74.3507 3.82304 74.3536 3.40467C74.3555 2.8497 74.5768 2.31799 74.9692 1.92556C75.3616 1.53313 75.8933 1.31182 76.4483 1.30992ZM74.6876 23.1529V8.1974H78.2191V23.1529H74.6876Z" fill="white"/>
<path d="M80.791 15.6722C80.7937 13.6112 81.6136 11.6353 83.071 10.1779C84.5284 8.72051 86.5043 7.90058 88.5653 7.89791C89.6192 7.8954 90.6623 8.10928 91.6301 8.52631C92.5979 8.94335 93.4697 9.55465 94.1917 10.3223L91.7082 12.8044C91.3061 12.3724 90.8198 12.0275 90.2793 11.7907C89.7388 11.554 89.1554 11.4306 88.5653 11.428C87.8563 11.4251 87.1578 11.5996 86.5335 11.9357C85.9092 12.2719 85.3789 12.7589 84.9911 13.3525C84.6032 13.946 84.3701 14.6272 84.3129 15.334C84.2557 16.0407 84.3763 16.7505 84.6638 17.3987C84.9512 18.0469 85.3963 18.6128 85.9584 19.0449C86.5206 19.4771 87.182 19.7616 87.8823 19.8726C88.5826 19.9837 89.2995 19.9177 89.9678 19.6806C90.6361 19.4436 91.2344 19.0431 91.7082 18.5156L94.1917 21.0279C93.4709 21.7959 92.6002 22.4079 91.6334 22.8259C90.6666 23.2439 89.6244 23.4591 88.5711 23.4581C86.5086 23.452 84.5323 22.6296 83.0744 21.1706C81.6165 19.7116 80.7956 17.7348 80.791 15.6722Z" fill="white"/>
<path d="M0 36.9322C0.00266656 34.8711 0.822601 32.8952 2.27999 31.4378C3.73738 29.9804 5.71327 29.1605 7.77433 29.1578C8.82779 29.1554 9.87053 29.3692 10.838 29.786C11.8056 30.2027 12.6773 30.8136 13.3992 31.5808L10.9215 34.0585C10.5189 33.6261 10.0319 33.2808 9.49062 33.044C8.94929 32.8073 8.36515 32.6841 7.77433 32.6822C7.06512 32.6791 6.36641 32.8535 5.74188 33.1896C5.11735 33.5257 4.58685 34.0127 4.19872 34.6063C3.8106 35.1998 3.57719 35.8811 3.51977 36.588C3.46234 37.2949 3.58273 38.0049 3.86997 38.6534C4.1572 39.3018 4.60214 39.8681 5.16424 40.3005C5.72634 40.733 6.38774 41.0179 7.08814 41.1293C7.78855 41.2407 8.5057 41.1751 9.17425 40.9384C9.84279 40.7017 10.4415 40.3014 10.9157 39.7741L13.3992 42.2878C12.6773 43.055 11.8056 43.6659 10.838 44.0827C9.87053 44.4994 8.82779 44.7132 7.77433 44.7108C5.71392 44.7036 3.74003 43.8816 2.28349 42.4243C0.826962 40.9669 0.00607091 38.9926 0 36.9322H0Z" fill="white"/>
<path d="M36.3862 29.4515V37.711C36.3862 40.1945 37.7035 41.3909 39.5881 41.3909C41.6224 41.3909 43.2089 39.8648 43.2089 37.5311V29.4515H46.739V44.4128H43.2089V42.796C42.6297 43.4011 41.9341 43.8827 41.1638 44.2117C40.3936 44.5408 39.5647 44.7106 38.7271 44.7108C35.256 44.7108 32.8633 42.2633 32.8633 38.4582V29.4515H36.3862Z" fill="white"/>
<path d="M50.2109 44.4128V29.4515H53.7425V31.1561C54.7604 29.9597 56.3152 29.1521 58.23 29.1521V32.5037C58.102 32.4786 57.9716 32.4685 57.8413 32.4734C55.5968 32.4734 53.7425 34.0571 53.7425 36.3332V44.4128H50.2109Z" fill="white"/>
<path d="M61.5225 39.7439C62.6886 40.7617 64.3644 41.5104 66.0402 41.5104C67.5361 41.5104 68.7037 40.8812 68.7037 40.0707C68.7037 38.8138 66.8191 38.4251 65.712 38.1257C63.2573 37.4375 59.9359 36.7191 59.9359 33.5187C59.9359 30.9762 62.4194 29.1506 65.8012 29.1506C68.135 29.1506 70.2902 30.0145 71.7558 31.3346L69.8108 33.7303C68.7339 32.8017 67.2381 32.3539 65.8012 32.3539C64.2449 32.3539 63.4977 32.8924 63.4977 33.5503C63.4977 34.358 64.9936 34.6877 66.6089 35.0764C69.5718 35.7646 72.2352 36.8112 72.2352 40.0433C72.2352 42.737 69.5718 44.7108 65.951 44.7108C63.533 44.726 61.2002 43.8189 59.4277 42.1741L61.5225 39.7439Z" fill="white"/>
<path d="M81.4857 29.1521C85.7342 29.1521 88.6367 32.2632 88.6367 36.722C88.6367 37.2978 88.5474 37.9183 88.4927 38.5173H77.3509C77.9484 40.373 79.6242 41.5104 81.8384 41.5104C83.2781 41.5104 84.6516 41.0007 85.5485 40.0131L87.793 42.2576C86.3533 43.8412 84.2629 44.705 81.8082 44.705C77.2905 44.705 73.8496 41.3246 73.8496 36.9307C73.8496 32.5368 77.1407 29.1521 81.4857 29.1521ZM77.2962 35.7646H85.3153C85.0158 33.6396 83.4307 32.3237 81.4281 32.3237C79.355 32.3237 77.5899 33.7 77.2905 35.7646H77.2962Z" fill="white"/>
<path d="M92.2241 39.7439C93.3902 40.7617 95.066 41.5104 96.7418 41.5104C98.2377 41.5104 99.4052 40.8812 99.4052 40.0707C99.4052 38.8138 97.5192 38.4251 96.4121 38.1257C93.9647 37.4375 90.6375 36.7191 90.6375 33.5187C90.6375 30.9762 93.121 29.1506 96.5028 29.1506C98.8366 29.1506 100.99 30.0145 102.457 31.3346L100.512 33.7288C99.4355 32.8002 97.9382 32.3525 96.5028 32.3525C94.9465 32.3525 94.1993 32.8909 94.1993 33.5489C94.1993 34.3566 95.6952 34.6862 97.3119 35.075C100.273 35.7631 102.937 36.8098 102.937 40.0419C102.937 42.7356 100.273 44.7094 96.654 44.7094C94.2342 44.7265 91.8991 43.8197 90.125 42.1741L92.2241 39.7439Z" fill="white"/>
</svg>
