<svg width="1440" height="2662" viewBox="0 0 1440 2662" fill="none" xmlns="http://www.w3.org/2000/svg">
<path d="M1493 5C1493 5 910.358 116.958 868.85 264.004C827.342 411.05 1354.09 554.099 1357.76 816.212C1361.44 1078.32 1228.46 1190.25 1001.46 1352.14C774.447 1514.04 103.708 1689.35 57.0575 1686.5C10.407 1683.64 -92.519 1838.66 122 1958.58C336.519 2078.51 965.824 2591.9 1218.91 2626.73C1472 2661.57 1593.59 2520.8 1340.13 2464.56C1034.8 2396.79 707.226 2649.86 -12 2657" stroke="#CE3252" stroke-width="10"/>
<path d="M1493 5C1493 5 910.358 116.958 868.85 264.004C827.342 411.05 1354.09 554.099 1357.76 816.212C1361.44 1078.32 1228.46 1190.25 1001.46 1352.14C774.447 1514.04 103.708 1689.35 57.0575 1686.5C10.407 1683.64 -92.519 1838.66 122 1958.58C336.519 2078.51 965.824 2591.9 1218.91 2626.73C1472 2661.57 1593.59 2520.8 1340.13 2464.56C1034.8 2396.79 707.226 2649.86 -12 2657" stroke="url(#paint0_linear_186_1824)" stroke-opacity="0.2" stroke-width="10"/>
<defs>
<linearGradient id="paint0_linear_186_1824" x1="590.731" y1="1178.32" x2="215.546" y2="1694.5" gradientUnits="userSpaceOnUse">
<stop stop-color="#FFD7D7"/>
<stop offset="1" stop-color="#FEB5B5" stop-opacity="0"/>
</linearGradient>
</defs>
</svg>
