<svg width="48" height="48" viewBox="0 0 48 48" fill="none" xmlns="http://www.w3.org/2000/svg">
<path d="M24 4C12.954 4 4 12.954 4 24C4 35.046 12.954 44 24 44C35.046 44 44 35.046 44 24C44 12.954 35.046 4 24 4Z" fill="url(#paint0_linear_186_1845)"/>
<path d="M26.7075 29.301H31.8835L32.6965 24.043H26.7075V21.169C26.7075 18.985 27.4215 17.048 29.4645 17.048H32.7475V12.46C32.1705 12.382 30.9505 12.212 28.6455 12.212C23.8315 12.212 21.0095 14.754 21.0095 20.546V24.044H16.0605V29.302H21.0085V43.754C21.9885 43.9 22.9815 44 24.0005 44C24.9215 44 25.8205 43.916 26.7075 43.796V29.301Z" fill="white"/>
<defs>
<linearGradient id="paint0_linear_186_1845" x1="9.993" y1="9.993" x2="40.615" y2="40.615" gradientUnits="userSpaceOnUse">
<stop stop-color="#2AA4F4"/>
<stop offset="1" stop-color="#007AD9"/>
</linearGradient>
</defs>
</svg>
