<svg width="25" height="25" viewBox="0 0 25 25" fill="none" xmlns="http://www.w3.org/2000/svg">
<g clip-path="url(#clip0_186_2417)">
<path d="M12.5 2.91094C15.7063 2.91094 16.0859 2.925 17.3469 2.98125C18.5188 3.03281 19.1516 3.22969 19.5734 3.39375C20.1313 3.60938 20.5344 3.87188 20.9516 4.28906C21.3734 4.71094 21.6313 5.10938 21.8469 5.66719C22.0109 6.08906 22.2078 6.72656 22.2594 7.89375C22.3156 9.15937 22.3297 9.53906 22.3297 12.7406C22.3297 15.9469 22.3156 16.3266 22.2594 17.5875C22.2078 18.7594 22.0109 19.3922 21.8469 19.8141C21.6313 20.3719 21.3688 20.775 20.9516 21.1922C20.5297 21.6141 20.1313 21.8719 19.5734 22.0875C19.1516 22.2516 18.5141 22.4484 17.3469 22.5C16.0813 22.5563 15.7016 22.5703 12.5 22.5703C9.29375 22.5703 8.91406 22.5563 7.65313 22.5C6.48125 22.4484 5.84844 22.2516 5.42656 22.0875C4.86875 21.8719 4.46563 21.6094 4.04844 21.1922C3.62656 20.7703 3.36875 20.3719 3.15313 19.8141C2.98906 19.3922 2.79219 18.7547 2.74063 17.5875C2.68438 16.3219 2.67031 15.9422 2.67031 12.7406C2.67031 9.53438 2.68438 9.15469 2.74063 7.89375C2.79219 6.72187 2.98906 6.08906 3.15313 5.66719C3.36875 5.10938 3.63125 4.70625 4.04844 4.28906C4.47031 3.86719 4.86875 3.60938 5.42656 3.39375C5.84844 3.22969 6.48594 3.03281 7.65313 2.98125C8.91406 2.925 9.29375 2.91094 12.5 2.91094ZM12.5 0.75C9.24219 0.75 8.83438 0.764062 7.55469 0.820312C6.27969 0.876563 5.40313 1.08281 4.64375 1.37812C3.85156 1.6875 3.18125 2.09531 2.51563 2.76562C1.84531 3.43125 1.4375 4.10156 1.12813 4.88906C0.832812 5.65313 0.626563 6.525 0.570313 7.8C0.514063 9.08437 0.5 9.49219 0.5 12.75C0.5 16.0078 0.514063 16.4156 0.570313 17.6953C0.626563 18.9703 0.832812 19.8469 1.12813 20.6063C1.4375 21.3984 1.84531 22.0688 2.51563 22.7344C3.18125 23.4 3.85156 23.8125 4.63906 24.1172C5.40313 24.4125 6.275 24.6187 7.55 24.675C8.82969 24.7312 9.2375 24.7453 12.4953 24.7453C15.7531 24.7453 16.1609 24.7312 17.4406 24.675C18.7156 24.6187 19.5922 24.4125 20.3516 24.1172C21.1391 23.8125 21.8094 23.4 22.475 22.7344C23.1406 22.0688 23.5531 21.3984 23.8578 20.6109C24.1531 19.8469 24.3594 18.975 24.4156 17.7C24.4719 16.4203 24.4859 16.0125 24.4859 12.7547C24.4859 9.49688 24.4719 9.08906 24.4156 7.80938C24.3594 6.53438 24.1531 5.65781 23.8578 4.89844C23.5625 4.10156 23.1547 3.43125 22.4844 2.76562C21.8188 2.1 21.1484 1.6875 20.3609 1.38281C19.5969 1.0875 18.725 0.88125 17.45 0.825C16.1656 0.764063 15.7578 0.75 12.5 0.75Z" fill="white"/>
<path d="M12.5 6.58594C9.09688 6.58594 6.33594 9.34688 6.33594 12.75C6.33594 16.1531 9.09688 18.9141 12.5 18.9141C15.9031 18.9141 18.6641 16.1531 18.6641 12.75C18.6641 9.34688 15.9031 6.58594 12.5 6.58594ZM12.5 16.7484C10.2922 16.7484 8.50156 14.9578 8.50156 12.75C8.50156 10.5422 10.2922 8.75156 12.5 8.75156C14.7078 8.75156 16.4984 10.5422 16.4984 12.75C16.4984 14.9578 14.7078 16.7484 12.5 16.7484Z" fill="white"/>
<path d="M20.3469 6.34141C20.3469 7.13828 19.7 7.78047 18.9078 7.78047C18.1109 7.78047 17.4688 7.1336 17.4688 6.34141C17.4688 5.54453 18.1156 4.90234 18.9078 4.90234C19.7 4.90234 20.3469 5.54922 20.3469 6.34141Z" fill="white"/>
</g>
<defs>
<clipPath id="clip0_186_2417">
<rect width="24" height="24" fill="white" transform="translate(0.5 0.75)"/>
</clipPath>
</defs>
</svg>
