<svg width="25" height="20" viewBox="0 0 25 20" fill="none" xmlns="http://www.w3.org/2000/svg">
<path d="M8.05016 19.9997C17.1045 19.9997 22.0583 12.4965 22.0583 5.99162C22.0583 5.78068 22.0536 5.56505 22.0442 5.35412C23.0079 4.65722 23.8395 3.79401 24.5 2.80505C23.6025 3.20436 22.6496 3.46514 21.6739 3.57849C22.7013 2.96266 23.4705 1.99523 23.8391 0.855523C22.8726 1.42831 21.8156 1.83237 20.7134 2.05037C19.9708 1.26132 18.989 0.738872 17.9197 0.563807C16.8504 0.388742 15.7532 0.570806 14.7977 1.08185C13.8423 1.5929 13.0818 2.40446 12.6338 3.39107C12.1859 4.37767 12.0754 5.48437 12.3195 6.54005C10.3625 6.44185 8.44794 5.93346 6.69998 5.04785C4.95203 4.16225 3.40969 2.91919 2.17297 1.39927C1.5444 2.483 1.35206 3.7654 1.63503 4.98585C1.918 6.20629 2.65506 7.2732 3.69641 7.96974C2.91463 7.94492 2.14998 7.73444 1.46563 7.35568V7.41662C1.46492 8.5539 1.8581 9.65634 2.57831 10.5365C3.29852 11.4167 4.30132 12.0203 5.41625 12.2447C4.69206 12.4429 3.93198 12.4718 3.19484 12.3291C3.50945 13.3072 4.12157 14.1626 4.94577 14.7761C5.76997 15.3895 6.76512 15.7304 7.79234 15.751C6.04842 17.1209 3.89417 17.8639 1.67656 17.8604C1.28329 17.8598 0.890399 17.8357 0.5 17.7882C2.75286 19.2335 5.37353 20.0011 8.05016 19.9997Z" fill="white"/>
</svg>
