<svg width="33" height="30" viewBox="0 0 33 30" fill="none" xmlns="http://www.w3.org/2000/svg">
<g clip-path="url(#clip0_186_2415)" filter="url(#filter0_d_186_2415)">
<path d="M28.2609 7.9498C28.2609 7.9498 28.0266 6.29512 27.3047 5.56855C26.3906 4.6123 25.3688 4.60762 24.9 4.55137C21.5438 4.30762 16.5047 4.30762 16.5047 4.30762H16.4953C16.4953 4.30762 11.4562 4.30762 8.1 4.55137C7.63125 4.60762 6.60938 4.6123 5.69531 5.56855C4.97344 6.29512 4.74375 7.9498 4.74375 7.9498C4.74375 7.9498 4.5 9.89512 4.5 11.8357V13.6545C4.5 15.5951 4.73906 17.5404 4.73906 17.5404C4.73906 17.5404 4.97344 19.1951 5.69062 19.9217C6.60469 20.8779 7.80469 20.8451 8.33906 20.9482C10.2609 21.1311 16.5 21.1873 16.5 21.1873C16.5 21.1873 21.5438 21.1779 24.9 20.9389C25.3688 20.8826 26.3906 20.8779 27.3047 19.9217C28.0266 19.1951 28.2609 17.5404 28.2609 17.5404C28.2609 17.5404 28.5 15.5998 28.5 13.6545V11.8357C28.5 9.89512 28.2609 7.9498 28.2609 7.9498ZM14.0203 15.8623V9.11699L20.5031 12.5014L14.0203 15.8623Z" fill="white"/>
</g>
<defs>
<filter id="filter0_d_186_2415" x="0.5" y="0.75" width="32" height="32" filterUnits="userSpaceOnUse" color-interpolation-filters="sRGB">
<feFlood flood-opacity="0" result="BackgroundImageFix"/>
<feColorMatrix in="SourceAlpha" type="matrix" values="0 0 0 0 0 0 0 0 0 0 0 0 0 0 0 0 0 0 127 0" result="hardAlpha"/>
<feOffset dy="4"/>
<feGaussianBlur stdDeviation="2"/>
<feComposite in2="hardAlpha" operator="out"/>
<feColorMatrix type="matrix" values="0 0 0 0 0 0 0 0 0 0 0 0 0 0 0 0 0 0 0.25 0"/>
<feBlend mode="normal" in2="BackgroundImageFix" result="effect1_dropShadow_186_2415"/>
<feBlend mode="normal" in="SourceGraphic" in2="effect1_dropShadow_186_2415" result="shape"/>
</filter>
<clipPath id="clip0_186_2415">
<rect width="24" height="24" fill="white" transform="translate(4.5 0.75)"/>
</clipPath>
</defs>
</svg>
